<svg width="434" height="434" viewBox="0 0 434 434" fill="none" xmlns="http://www.w3.org/2000/svg">
<rect width="434" height="434" fill="#FF6847"/>
<path d="M158.036 176.336C158.665 159.501 164.172 146.521 174.556 137.396C184.94 128.271 199.021 123.708 216.8 123.708C228.6 123.708 238.669 125.753 247.008 129.844C255.504 133.935 261.876 139.52 266.124 146.6C270.529 153.68 272.732 161.625 272.732 170.436C272.732 180.82 270.136 189.316 264.944 195.924C259.752 202.375 253.695 206.78 246.772 209.14V210.084C255.74 213.073 262.82 218.029 268.012 224.952C273.204 231.875 275.8 240.764 275.8 251.62C275.8 261.375 273.519 270.028 268.956 277.58C264.551 284.975 258.021 290.796 249.368 295.044C240.872 299.292 230.724 301.416 218.924 301.416C200.044 301.416 184.94 296.775 173.612 287.492C162.441 278.209 156.541 264.207 155.912 245.484H195.088C195.245 252.407 197.212 257.913 200.988 262.004C204.764 265.937 210.271 267.904 217.508 267.904C223.644 267.904 228.364 266.173 231.668 262.712C235.129 259.093 236.86 254.373 236.86 248.552C236.86 241 234.421 235.572 229.544 232.268C224.824 228.807 217.193 227.076 206.652 227.076H199.1V194.272H206.652C214.676 194.272 221.127 192.935 226.004 190.26C231.039 187.428 233.556 182.472 233.556 175.392C233.556 169.728 231.983 165.323 228.836 162.176C225.689 159.029 221.363 157.456 215.856 157.456C209.877 157.456 205.393 159.265 202.404 162.884C199.572 166.503 197.92 170.987 197.448 176.336H158.036Z" fill="white"/>
</svg>
