<svg width="434" height="434" viewBox="0 0 434 434" fill="none" xmlns="http://www.w3.org/2000/svg">
<rect width="434" height="434" fill="#FF6847"/>
<path d="M159.204 267.668C164.553 263.42 166.992 261.453 166.52 261.768C181.939 249.024 194.053 238.561 202.864 230.38C211.832 222.199 219.384 213.624 225.52 204.656C231.656 195.688 234.724 186.956 234.724 178.46C234.724 172.009 233.229 166.975 230.24 163.356C227.251 159.737 222.767 157.928 216.788 157.928C210.809 157.928 206.089 160.209 202.628 164.772C199.324 169.177 197.672 175.471 197.672 183.652H158.732C159.047 170.279 161.879 159.108 167.228 150.14C172.735 141.172 179.893 134.564 188.704 130.316C197.672 126.068 207.584 123.944 218.44 123.944C237.163 123.944 251.244 128.743 260.684 138.34C270.281 147.937 275.08 160.445 275.08 175.864C275.08 192.699 269.337 208.353 257.852 222.828C246.367 237.145 231.735 251.148 213.956 264.836H277.676V297.64H159.204V267.668Z" fill="white"/>
</svg>
