<svg width="300" height="346" viewBox="0 0 300 346" fill="none" xmlns="http://www.w3.org/2000/svg">
<path fill-rule="evenodd" clip-rule="evenodd" d="M0.00146484 260C0.00146484 260 11.0015 110 150.001 110C289.001 110 300.001 260 300.001 260H272.887L300.001 346H0.00146484L27.0015 260H0.00146484ZM11.0015 257.559C11.0015 257.559 21.1581 119 149.501 119C277.845 119 288.001 257.559 288.001 257.559H262.966L288.001 337H11.0015L35.9315 257.559H11.0015Z" fill="#040404"/>
<path fill-rule="evenodd" clip-rule="evenodd" d="M275.429 110C201.621 139.501 149.477 211.661 149.477 296H149.561C227.799 264.686 275.451 189.498 275.429 110Z" fill="#FF6847"/>
<path fill-rule="evenodd" clip-rule="evenodd" d="M24 110C97.8079 139.501 149.952 211.661 149.952 296H149.869C71.6303 264.686 23.9784 189.499 24 110Z" fill="#FF6847"/>
<circle cx="150" cy="50" r="50" fill="black"/>
</svg>
